<svg width="153" height="18" viewBox="0 0 153 18" fill="none" xmlns="http://www.w3.org/2000/svg">
<path d="M0.254328 9.41423L14.1374 15.9126C19.4618 18.4048 25.8077 16.6801 29.1381 11.8356L33.2792 5.81185C37.6959 -0.6128 46.9658 -1.19771 52.155 4.62082L57.2678 10.3536C61.5227 15.1246 69.2364 14.1609 72.1868 8.48974V8.48974C75.5704 1.98568 84.8522 1.91833 88.3299 8.3726L88.8953 9.42203C91.8747 14.9515 99.2242 16.2706 103.941 12.1223L106.94 9.48386C110.576 6.28617 115.775 5.58197 120.13 7.69735L124.522 9.83068C128.226 11.6296 132.593 11.4076 136.095 9.24242L140.006 6.82457C144.199 4.23177 149.688 5.36881 152.507 9.41423V9.41423" stroke="#0099FF" stroke-width="1.2"/>
</svg>
