<svg width="153" height="16" viewBox="0 0 153 16" fill="none" xmlns="http://www.w3.org/2000/svg">
<path d="M0.286495 14.5389L18.1187 4.8886C22.7526 2.38084 28.4782 3.1727 32.2575 6.84405L34.7817 9.29613C39.5807 13.958 47.2578 13.8207 51.8869 8.99021L57.0536 3.59887C61.7041 -1.2538 69.7584 -0.0345612 72.7642 5.97712V5.97712C75.6896 11.8279 83.4428 13.1767 88.1722 8.6575L93.8382 3.24331C97.6036 -0.354756 103.749 0.551536 106.316 5.08337V5.08337C108.972 9.77425 115.416 10.5441 119.103 6.61114L121.325 4.24019C125.913 -0.654167 133.869 0.0217423 137.566 5.61999L139.881 9.12613C142.113 12.5056 145.892 14.5389 149.942 14.5389H153" stroke="#0099FF" stroke-width="1.2"/>
</svg>
