<svg width="153" height="40" viewBox="0 0 153 40" fill="none" xmlns="http://www.w3.org/2000/svg">
<path d="M0.482591 39.3942L17.4859 16.3503C17.9592 15.709 18.4951 15.1163 19.0858 14.5812L20.7556 13.0685C25.9992 8.31812 34.2965 9.66547 37.7675 15.8309L38.2689 16.7215C41.9889 23.3293 51.31 23.8438 55.7347 17.6856L56.9157 16.0419C60.9224 10.4655 69.4158 11.1277 72.5098 17.2577V17.2577C76.1396 24.4492 86.6206 23.7765 89.3013 16.18L91.0039 11.3552C92.6025 6.82494 96.8844 3.79533 101.688 3.79533H104.944C109.653 3.79533 113.927 6.54893 115.874 10.837L117.752 14.9731C121.235 22.6447 131.331 24.4352 137.24 18.4292L140.234 15.3859L152.536 0.380535" stroke="#0099FF" stroke-width="1.2"/>
</svg>
