<svg width="24" height="24" viewBox="0 0 24 24" fill="none" xmlns="http://www.w3.org/2000/svg">
<path d="M5.83509 6.59854L6.91523 7.67868C5.80911 8.78479 5.12543 10.3126 5.12543 12C5.12543 13.6882 5.80911 15.216 6.91523 16.3213L5.83585 17.4007C4.45245 16.0188 3.59766 14.1091 3.59766 12C3.59766 9.8909 4.45321 7.98118 5.83509 6.59854ZM18.1658 6.59854C19.5484 7.98118 20.4032 9.8909 20.4032 12C20.4032 14.1091 19.5477 16.0196 18.1658 17.4015L17.0856 16.3213C18.1918 15.2152 18.8754 13.6874 18.8754 12C18.8754 10.3126 18.1918 8.78556 17.0864 7.67944L18.165 6.59931L18.1658 6.59854ZM12.7643 6.65278V11.2361H15.056L11.2365 17.3472V12.7639H8.94488L12.7643 6.65278ZM7.99537 8.75882L9.07627 9.83972C8.52321 10.392 8.18099 11.1559 8.18099 12C8.18099 12.8441 8.52321 13.608 9.07627 14.1603L7.99537 15.2412C7.16655 14.4116 6.65321 13.2658 6.65321 12C6.65321 10.7342 7.16655 9.5884 7.99537 8.75882ZM16.0063 8.75958C16.8351 9.58917 17.3477 10.735 17.3477 12C17.3477 13.2658 16.8343 14.4116 16.0055 15.2412L14.9246 14.1603C15.4777 13.608 15.8199 12.8441 15.8199 12C15.8199 11.1567 15.4784 10.3928 14.9261 9.84049L16.0063 8.75958Z" fill="#0099FF"/>
</svg>
