<svg width="153" height="15" viewBox="0 0 153 15" fill="none" xmlns="http://www.w3.org/2000/svg">
<path d="M0.366864 13.3782L13.6506 3.13486C19.1297 -1.09014 27.0354 0.170409 30.9289 5.88983L32.7678 8.59116C37.3704 15.3523 47.2618 15.5692 52.1563 9.01615L53.5107 7.20276C57.8091 1.44785 66.5233 1.72755 70.4437 7.74626L71.8863 9.9608C75.5275 15.5509 83.8297 15.1886 86.9703 9.30262L87.2045 8.86353C90.3445 2.9786 98.7318 2.84417 102.059 8.62543V8.62543C105.444 14.5076 114.02 14.2397 117.031 8.15773L118.083 6.03311C120.819 0.507637 127.929 -1.12844 132.804 2.6456L140.755 8.79986C144.246 11.5023 149.115 11.5311 152.638 8.87017V8.87017" stroke="#0099FF" stroke-width="1.2"/>
</svg>
