<svg width="24" height="24" viewBox="0 0 24 24" fill="none" xmlns="http://www.w3.org/2000/svg">
<path d="M11.9998 8.18056C13.6206 8.18056 15.1749 8.82441 16.321 9.97046C17.467 11.1165 18.1109 12.6709 18.1109 14.2917C18.1109 15.9124 17.467 17.4668 16.321 18.6129C15.1749 19.7589 13.6206 20.4028 11.9998 20.4028C10.379 20.4028 8.82463 19.7589 7.67857 18.6129C6.53252 17.4668 5.88867 15.9124 5.88867 14.2917C5.88867 12.6709 6.53252 11.1165 7.67857 9.97046C8.82463 8.82441 10.379 8.18056 11.9998 8.18056ZM11.9998 9.70834C10.7842 9.70834 9.61842 10.1912 8.75888 11.0508C7.89934 11.9103 7.41645 13.0761 7.41645 14.2917C7.41645 15.5072 7.89934 16.673 8.75888 17.5326C9.61842 18.3921 10.7842 18.875 11.9998 18.875C13.2154 18.875 14.3811 18.3921 15.2407 17.5326C16.1002 16.673 16.5831 15.5072 16.5831 14.2917C16.5831 13.0761 16.1002 11.9103 15.2407 11.0508C14.3811 10.1912 13.2154 9.70834 11.9998 9.70834ZM11.9998 10.8542L13.0104 12.9014L15.2692 13.2299L13.6345 14.8226L14.0203 17.073L11.9998 16.0104L9.9793 17.0722L10.3651 14.8226L8.73034 13.2291L10.9892 12.9006L11.9998 10.8542ZM16.5831 4.36112V6.65278L15.5419 7.52209C14.6779 7.06878 13.7346 6.78633 12.7637 6.69021V4.36112H16.5831ZM11.2359 4.36035V6.69021C10.2653 6.78619 9.32222 7.06838 8.45839 7.52132L7.41645 6.65278V4.36112L11.2359 4.36035Z" fill="#0099FF"/>
</svg>
