<svg width="153" height="16" viewBox="0 0 153 16" fill="none" xmlns="http://www.w3.org/2000/svg">
<path d="M0.254817 9.07797L14.5906 2.36771C19.7126 -0.0297492 25.813 1.46745 29.243 5.96378L32.6555 10.4371C37.1811 16.3698 45.9623 16.7884 51.0319 11.3133L56.6384 5.25828C61.2535 0.273922 69.4758 1.65071 72.2694 7.84257V7.84257C75.485 14.9696 85.4988 15.3742 89.2076 8.49095V8.49095C92.0498 3.21615 99.0236 1.88981 103.604 5.75296L104.397 6.42236C108.612 9.97752 114.881 9.57526 118.607 5.51053L119.597 4.43061C124.337 -0.74014 132.513 -0.66397 137.155 4.59419L141.664 9.70088C144.626 13.0558 149.948 12.75 152.507 9.07797V9.07797" stroke="#0099FF" stroke-width="1.2"/>
</svg>
