<svg width="152" height="27" viewBox="0 0 152 27" fill="none" xmlns="http://www.w3.org/2000/svg">
<path d="M0.429801 25.6471L11.8004 13.9894C17.5004 8.14552 27.2451 9.57335 31.0289 16.8068L32.532 19.6802C36.7245 27.6948 47.9518 28.337 53.0308 20.8527L56.5226 15.7073C60.4337 9.94392 69.1999 10.909 71.7636 17.3851V17.3851C74.6376 24.6452 84.8907 24.7076 87.8528 17.483L89.5503 13.3427C91.8118 7.82678 98.8083 6.14072 103.334 10.021V10.021C107.234 13.3647 113.163 12.6425 116.146 8.46028L118.503 5.15528C123.27 -1.52733 133.442 -0.711293 137.082 6.6458L141.765 16.1088C143.736 20.0918 149.388 20.1709 151.47 16.2446V16.2446" stroke="#0099FF" stroke-width="1.2"/>
</svg>
