<svg width="154" height="35" viewBox="0 0 154 35" fill="none" xmlns="http://www.w3.org/2000/svg">
<path d="M0.425528 17.3635L13.6576 4.13236C19.3161 -1.52575 28.8166 -0.197204 32.7059 6.79608L36.5964 13.7915C40.0875 20.0688 48.5411 21.408 53.8014 16.5171L54.8087 15.5806C60.5121 10.2777 69.8125 13.0211 71.7249 20.5704L73.5814 27.8993C75.6873 36.213 87.4811 36.263 89.6575 27.9675L89.94 26.8907C91.8762 19.5108 102.097 18.8536 104.962 25.9249V25.9249C107.664 32.5934 117.136 32.5072 119.716 25.7905L125.032 11.9544C127.671 5.08468 136.792 3.71414 141.333 9.50491L143.736 12.5686C146.21 15.7235 150.96 15.8036 153.539 12.734V12.734" stroke="#0099FF" stroke-width="1.2"/>
</svg>
