<svg width="153" height="16" viewBox="0 0 153 16" fill="none" xmlns="http://www.w3.org/2000/svg">
<path d="M0.286495 13.1676L18.1187 3.51721C22.7526 1.00944 28.4782 1.80131 32.2575 5.47266L38.134 11.1812C41.4146 14.3681 46.216 15.4242 50.5311 13.9081L57.8381 11.3407C60.5711 10.3805 63.5584 10.4364 66.2536 11.4981L71.525 13.5747C75.8748 15.2883 80.8232 14.3326 84.2221 11.1225L89.5552 6.08571C93.5957 2.26968 99.9038 2.24277 103.977 6.02419V6.02419C108.232 9.97492 114.88 9.74424 118.851 5.50805L119.877 4.41411C125.204 -1.26857 134.441 -0.483793 138.733 6.01616L139.881 7.75473C142.113 11.1342 145.892 13.1676 149.942 13.1676H153" stroke="#0099FF" stroke-width="1.2"/>
</svg>
