<svg width="154" height="20" viewBox="0 0 154 20" fill="none" xmlns="http://www.w3.org/2000/svg">
<path d="M0.341158 17.965L19.1749 4.97625C23.2167 2.1888 28.548 2.14175 32.6384 4.85743L52.0338 17.7345C55.7069 20.1732 60.6924 18.3851 61.9783 14.1678V14.1678C63.6251 8.76717 70.8586 7.80547 73.8593 12.5883L74.3342 13.3451C77.0502 17.6741 83.3406 17.7242 86.1252 13.4389L88.3192 10.0624C91.5906 5.02801 98.6369 4.21635 102.967 8.37515L103.55 8.93509C108.336 13.5316 116.164 12.4285 119.493 6.68828L119.887 6.00853C123.611 -0.411438 132.536 -1.28283 137.431 4.29567L139 6.08373C142.997 10.6392 150.251 10.0728 153.493 4.95213V4.95213" stroke="#0099FF" stroke-width="1.2"/>
</svg>
