<svg width="153" height="12" viewBox="0 0 153 12" fill="none" xmlns="http://www.w3.org/2000/svg">
<path d="M152.802 1.10425L134.161 7.58825C131.329 8.57327 128.231 8.46456 125.475 7.28346L113.918 2.33022C110.625 0.919153 106.875 1.04974 103.689 2.68642L94.5918 7.35899C90.133 9.64924 84.7212 8.93279 81.012 5.56121L78.9943 3.72725C74.511 -0.347935 67.6959 -0.450402 63.0921 3.48814L60.9631 5.30944C56.9584 8.73546 51.1159 8.93433 46.8875 5.78856V5.78856C43.1024 2.97254 37.9651 2.80758 34.0071 5.37495L28.6362 8.85879C24.7259 11.3952 19.618 11.082 16.0469 8.08687L15.479 7.61059C10.78 3.66947 3.671 4.86226 0.515619 10.1212V10.1212" stroke="#0099FF" stroke-width="1.2"/>
</svg>
