<svg width="153" height="17" viewBox="0 0 153 17" fill="none" xmlns="http://www.w3.org/2000/svg">
<path d="M152.613 0.459547L137.592 13.0946C132.398 17.4642 124.617 16.6634 120.421 11.3274L116.821 6.74967C112.24 0.924129 103.528 0.596852 98.5235 6.06229L95.9115 8.91463C91.2085 14.0504 82.9059 13.2934 79.2093 7.39177L78.3777 6.06427C74.7056 0.201867 66.2065 0.0844628 62.3739 5.8432L61.1828 7.63285C57.7263 12.8264 49.9767 12.4465 47.0448 6.93968V6.93968C44.226 1.64531 36.8766 1.03816 33.2273 5.7982L29.568 10.5712C25.6147 15.7277 17.7631 15.4681 14.1589 10.0619L12.2714 7.23061C9.48874 3.05664 3.38356 2.97524 0.490629 7.07356V7.07356" stroke="#0099FF" stroke-width="1.2"/>
</svg>
