<svg width="153" height="22" viewBox="0 0 153 22" fill="none" xmlns="http://www.w3.org/2000/svg">
<path d="M0.385176 19.6875L13.1369 9.0164C18.9837 4.12366 27.883 6.13589 31.056 13.0681L31.9291 14.9757C35.7449 23.3122 47.6234 23.2145 51.3016 14.8163V14.8163C54.0732 8.48795 62.0563 6.45246 67.5197 10.6811L73.9693 15.6731C79.9943 20.3363 88.8165 17.7461 91.3642 10.5659V10.5659C93.5284 4.46646 100.4 1.46939 106.343 4.03309L115.782 8.1056C120.057 9.94968 125.039 8.55401 127.733 4.75763V4.75763C132.328 -1.71695 142.3 -0.385941 145.036 7.06718L146.81 11.9012C147.316 13.2777 148.069 14.55 149.032 15.6553L152.547 19.6875" stroke="#0099FF" stroke-width="1.2"/>
</svg>
