<svg width="154" height="48" viewBox="0 0 154 48" fill="none" xmlns="http://www.w3.org/2000/svg">
<path d="M0.532168 47.3872L15.7295 18.9955C19.7369 11.5091 30.2893 11.0232 34.9676 18.1097V18.1097C39.0728 24.3281 47.9899 24.8849 52.8368 19.2256L58.3671 12.7682C62.5767 7.85295 70.4359 8.82015 73.3281 14.6094V14.6094C76.6341 21.2267 86.0532 21.2935 89.4526 14.7237L90.6391 12.4306C93.3961 7.10238 100.189 5.38023 105.152 8.75141V8.75141C109.289 11.5623 114.867 10.8865 118.213 7.16898L120.688 4.42008C125.817 -1.27778 134.976 -0.475678 139.037 6.02708L143.705 13.503C145.947 17.0921 151.145 17.1739 153.498 13.657V13.657" stroke="#0099FF" stroke-width="1.2"/>
</svg>
