<svg width="153" height="18" viewBox="0 0 153 18" fill="none" xmlns="http://www.w3.org/2000/svg">
<path d="M0.285806 13.7079L15.2386 5.61574C21.0913 2.44843 28.4392 4.70209 31.5913 10.563V10.563C36.0827 18.9142 48.0859 19.1462 52.7328 10.8805L53.6594 9.23222C56.656 3.90191 63.1751 1.66847 68.8108 4.0414L73.2321 5.90297C76.2538 7.17526 79.6639 7.15884 82.6731 5.85753L89.2998 2.99197C93.6779 1.09871 98.7612 1.97169 102.257 5.21717L103.459 6.33323C107.973 10.5243 114.924 10.6274 119.561 6.57215L122.986 3.57565C127.153 -0.0682006 133.268 -0.398431 137.802 2.77557L145.115 7.89465L152.632 13.7079" stroke="#0099FF" stroke-width="1.2"/>
</svg>
