<svg width="153" height="39" viewBox="0 0 153 39" fill="none" xmlns="http://www.w3.org/2000/svg">
<path d="M152.502 38.1875L137.53 15.9149C133.057 9.26136 123.395 8.83848 118.278 15.0103V15.0103C113.876 20.3201 105.876 20.884 100.824 16.1875L94.5811 10.3828C90.2319 6.33896 83.2762 7.25348 80.1201 12.2841V12.2841C76.4455 18.141 67.9349 18.2088 64.1675 12.411L63.1464 10.8396C60.1192 6.18085 54.0215 4.62813 49.1348 7.27163L48.4267 7.65471C44.1683 9.95835 38.9244 9.35706 35.2979 6.1493L32.4306 3.61309C27.2562 -0.963935 19.2958 -0.239426 15.0327 5.19657L10.2261 11.3255C7.76104 14.4687 3.02881 14.5486 0.459111 11.4904V11.4904" stroke="#0099FF" stroke-width="1.2"/>
</svg>
