<svg width="153" height="14" viewBox="0 0 153 14" fill="none" xmlns="http://www.w3.org/2000/svg">
<path d="M0.254817 10.1053L18.138 1.7346C21.4428 0.1877 25.2713 0.22576 28.5447 1.83805L39.8639 7.41324C43.2995 9.10547 47.336 9.05917 50.7319 7.2886L60.1576 2.37426C63.8396 0.454501 68.2518 0.571219 71.8272 2.68296L78.0366 6.35035C81.9365 8.65372 86.8 8.56927 90.6176 6.1319L91.1507 5.79151C94.99 3.34028 99.885 3.26986 103.793 5.60963L105.382 6.56079C109.048 8.75581 113.605 8.8392 117.349 6.77982L122.699 3.83694C127.554 1.16688 133.605 2.1636 137.347 6.24964L141.546 10.8348C144.59 14.1588 149.93 13.8034 152.507 10.1053V10.1053" stroke="#0099FF" stroke-width="1.2"/>
</svg>
