<svg width="153" height="27" viewBox="0 0 153 27" fill="none" xmlns="http://www.w3.org/2000/svg">
<path d="M0.424148 26.5319L15.0426 11.9143C20.0446 6.91264 28.2644 7.29604 32.779 12.7416L34.7052 15.0649C39.1094 20.3772 47.0739 20.8939 52.1275 16.1952L58.3736 10.3877C62.7249 6.34196 69.6839 7.2569 72.8415 12.2899V12.2899C76.5179 18.1496 85.0325 18.2174 88.8016 12.4169L89.8232 10.8447C92.8519 6.18377 98.9524 4.63032 103.841 7.27506L104.55 7.65833C108.81 9.96306 114.057 9.36149 117.685 6.15221L120.554 3.61476C125.73 -0.964416 133.695 -0.239562 137.96 5.19898L142.769 11.3309C145.235 14.4756 149.969 14.5555 152.54 11.4958V11.4958" stroke="#0099FF" stroke-width="1.2"/>
</svg>
