<svg width="154" height="68" viewBox="0 0 154 68" fill="none" xmlns="http://www.w3.org/2000/svg">
<path d="M0.566754 67.601L15.9707 25.5006C19.1351 16.852 31.2017 16.4105 34.9896 24.8047V24.8047C38.4221 32.4112 49.0102 32.9715 53.2263 25.7697L57.7654 18.016C61.4763 11.6771 70.9175 12.6271 73.2912 19.5781V19.5781C75.9205 27.2775 86.7887 27.3366 89.5016 19.6663L91.4827 14.0651C93.4912 8.38628 100.73 6.73512 105.003 10.9813V10.9813C108.754 14.7102 115.003 13.9668 117.775 9.46161L120.105 5.67439C124.635 -1.68661 135.583 -0.87396 138.976 7.07513L143.707 18.157C145.523 22.4118 151.527 22.4884 153.451 18.2813V18.2813" stroke="#0099FF" stroke-width="1.2"/>
</svg>
